Patient4_TMGait_0pt3_01_right_26_GRF.mot
version=1
nRows=59
nColumns=19
inDegrees=no
endheader
time	F1x	F1y	F1z	M1x	M1y	M1z	F2x	F2y	F2z	M2x	M2y	M2z	EC1x	EC1y	EC1z	EC2x	EC2y	EC2z
47.89	-0.23034	809.2586	57.7993	-298.7474	-54.3752	770.2511	3.5138	15.5168	-5.9259	6.5676	0.3466	12.2784	-0.0592	0.0182	-0.0073	-0.0462	0.0165	0.9585
47.91	-1.2918	832.3599	60.2964	-307.0197	-56.4655	789.0174	2.175	11.6418	-4.0686	4.8675	0.37987	9.3641	-0.0592	0.0182	-0.0073	-0.0462	0.0165	0.9585
47.93	-2.4268	856.1338	62.7241	-315.4949	-58.5035	808.2192	1.1116	8.2111	-2.4823	3.3686	0.38327	6.7846	-0.0592	0.0182	-0.0073	-0.0462	0.0165	0.9585
47.95	-3.5335	877.6072	64.7698	-323.1219	-60.1873	825.1733	0.34781	5.5152	-1.2634	2.1932	0.36848	4.7592	-0.0592	0.0182	-0.0073	-0.0462	0.0165	0.9585
47.97	-4.4684	894.0244	66.1785	-328.9365	-61.2334	837.3258	-0.15027	3.6088	-0.41272	1.3618	0.34528	3.3318	-0.0592	0.0182	-0.0073	-0.0462	0.0165	0.9585
47.99	-5.0745	903.213	66.7835	-332.1835	-61.4287	842.6318	-0.43758	2.401	0.12291	0.83416	0.31886	2.4351	-0.0592	0.0182	-0.0073	-0.0462	0.0165	0.9585
48.01	-5.1935	903.7735	66.5295	-332.3745	-60.6602	839.7589	-0.57369	1.7261	0.41489	0.53944	0.29301	1.9392	-0.0592	0.0182	-0.0073	-0.0462	0.0165	0.9585
48.03	-4.6937	895.2119	65.4739	-329.3305	-58.9312	828.2254	-0.61514	1.3916	0.53149	0.39742	0.27474	1.6932	-0.0592	0.0182	-0.0073	-0.0462	0.0165	0.9585
48.05	-3.4948	878.0166	63.7543	-323.2144	-56.3397	808.4795	-0.60528	1.2048	0.53206	0.32843	0.27007	1.5372	-0.0592	0.0182	-0.0073	-0.0462	0.0165	0.9585
48.07	-1.5557	853.6317	61.5624	-314.5289	-53.0487	781.8641	-0.57407	0.97935	0.46587	0.25659	0.27876	1.3061	-0.0592	0.0182	-0.0073	-0.0462	0.0165	0.9585
48.09	1.1364	824.309	59.1152	-304.0711	-49.2533	750.4622	-0.54029	0.54622	0.37157	0.11375	0.29398	0.84477	-0.0592	0.0182	-0.0073	-0.0462	0.0165	0.9585
48.11	4.5594	792.8205	56.6222	-292.8348	-45.151	716.8282	-0.51187	-0.23243	0.27825	-0.15564	0.30546	0.024057	-0.0592	0.0182	-0.0073	-0.0462	0.0165	0.9585
48.13	8.66	762.1404	54.2575	-281.8974	-40.9168	683.686	-0.48759	-1.4499	0.2073	-0.58895	0.30134	-1.2443	-0.0592	0.0182	-0.0073	-0.0462	0.0165	0.9585
48.15	13.3451	735.1332	52.1653	-272.307	-36.709	653.6435	-0.45602	-3.1306	0.17596	-1.196	0.26621	-2.9788	-0.0592	0.0182	-0.0073	-0.0462	0.0165	0.9585
48.17	18.4839	714.2425	50.4599	-264.9645	-32.6716	628.9012	-0.39931	-5.1811	0.19957	-1.9421	0.17829	-5.0777	-0.0592	0.0182	-0.0073	-0.0462	0.0165	0.9585
48.19	23.9568	701.1729	49.2199	-260.5008	-28.9152	610.9786	-0.29714	-7.3275	0.28985	-2.7249	0.014043	-7.2641	-0.0592	0.0182	-0.0073	-0.0462	0.0165	0.9585
48.21	29.6382	696.5417	48.4975	-259.1401	-25.5332	600.4416	-0.12785	-9.0383	0.45339	-3.3467	-0.24248	-9.0082	-0.0592	0.0182	-0.0073	-0.0462	0.0165	0.9585
48.23	35.3618	699.5919	48.3198	-260.5841	-22.6196	596.6903	0.12909	-9.4559	0.68482	-3.4887	-0.59004	-9.4546	-0.0592	0.0182	-0.0073	-0.0462	0.0165	0.9585
48.25	40.9073	708.1307	48.6738	-263.987	-20.2586	597.9385	0.4859	-7.3426	0.96006	-2.6909	-1.0027	-7.365	-0.0592	0.0182	-0.0073	-0.0462	0.0165	0.9585
48.27	45.9889	718.7472	49.4839	-268.043	-18.5098	601.4277	0.93661	-1.0673	1.2285	-0.34796	-1.4191	-1.0988	-0.0592	0.0182	-0.0073	-0.0462	0.0165	0.9585
48.29	50.2473	727.2783	50.5975	-271.1679	-17.4025	603.8272	1.4453	11.3093	1.402	4.259	-1.7293	11.3031	-0.0592	0.0182	-0.0073	-0.0462	0.0165	0.9585
48.31	53.3065	729.533	51.7737	-271.7821	-16.9061	601.8175	1.929	31.7883	1.346	11.8695	-1.7598	31.871	-0.0592	0.0182	-0.0073	-0.0462	0.0165	0.9585
48.33	54.8732	722.0798	52.6879	-268.6142	-16.8935	592.6928	2.2009	61.9948	0.87039	23.0824	-1.2453	62.2669	-0.0592	0.0182	-0.0073	-0.0462	0.0165	0.9585
48.35	54.7935	702.7607	52.9854	-260.8917	-17.1571	574.7426	1.7554	102.6019	-0.25285	38.1412	0.23235	103.1979	-0.0592	0.0182	-0.0073	-0.0462	0.0165	0.9585
48.37	53.0672	670.901	52.3488	-248.4165	-17.4509	547.4127	-0.3233	152.6012	-2.2524	56.659	3.2307	153.6933	-0.0592	0.0182	-0.0073	-0.0462	0.0165	0.9585
48.39	49.8643	627.4174	50.5679	-231.6008	-17.5385	511.3826	-4.4551	209.0115	-5.2791	77.5051	8.0353	210.7683	-0.0592	0.0182	-0.0073	-0.0462	0.0165	0.9585
48.41	45.5363	574.7524	47.6212	-211.4309	-17.2482	468.4883	-10.0583	267.7204	-9.2807	99.1307	14.3516	270.1808	-0.0592	0.0182	-0.0073	-0.0462	0.0165	0.9585
48.43	40.5867	516.4528	43.6826	-189.2957	-16.4915	421.3887	-16.2525	325.6441	-13.8564	120.3845	21.4302	328.6906	-0.0592	0.0182	-0.0073	-0.0462	0.0165	0.9585
48.45	35.5021	456.2232	39.0377	-166.6233	-15.2667	372.872	-22.2824	380.9907	-18.485	140.6099	28.4646	384.4089	-0.0592	0.0182	-0.0073	-0.0462	0.0165	0.9585
48.47	30.5816	397.0015	33.9905	-144.5254	-13.6595	325.1734	-27.5623	432.5067	-22.7158	159.3538	34.793	436.0161	-0.0592	0.0182	-0.0073	-0.0462	0.0165	0.9585
48.49	25.9627	340.701	28.8305	-123.6966	-11.8102	279.7639	-31.7134	479.3208	-26.2985	176.2948	40.0331	482.6067	-0.0592	0.0182	-0.0073	-0.0462	0.0165	0.9585
48.51	21.6924	288.3459	23.8192	-104.4765	-9.8815	237.4408	-34.616	521.0415	-29.2318	191.276	44.1449	523.7991	-0.0592	0.0182	-0.0073	-0.0462	0.0165	0.9585
48.53	17.777	240.3217	19.1695	-86.9581	-8.0249	198.5117	-36.3916	557.8172	-31.6878	204.337	47.3484	559.7622	-0.0592	0.0182	-0.0073	-0.0462	0.0165	0.9585
48.55	14.2212	196.7002	15.0325	-71.1183	-6.3567	163.0378	-37.2906	590.3654	-33.8562	215.7406	49.9298	591.213	-0.0592	0.0182	-0.0073	-0.0462	0.0165	0.9585
48.57	11.0354	157.4896	11.4935	-56.9184	-4.9475	131.0327	-37.5431	619.6922	-35.8274	225.8812	52.0693	619.1316	-0.0592	0.0182	-0.0073	-0.0462	0.0165	0.9585
48.59	8.2527	122.7332	8.5863	-44.3453	-3.8227	102.5435	-37.2846	646.6165	-37.5773	235.1073	53.7993	644.2934	-0.0592	0.0182	-0.0073	-0.0462	0.0165	0.9585
48.61	5.9218	92.4954	6.2984	-33.4078	-2.9667	77.6378	-36.5714	671.4056	-39.0167	243.5731	55.0554	666.9265	-0.0592	0.0182	-0.0073	-0.0462	0.0165	0.9585
48.63	4.0557	66.7972	4.5624	-24.1106	-2.3312	56.3541	-35.4133	693.7167	-40.0351	251.2006	55.7343	686.6829	-0.0592	0.0182	-0.0073	-0.0462	0.0165	0.9585
48.65	2.602	45.5641	3.2619	-16.4304	-1.852	38.6643	-33.7895	712.791	-40.5477	257.7405	55.7462	702.8415	-0.0592	0.0182	-0.0073	-0.0462	0.0165	0.9585
48.67	1.473	28.6309	2.2758	-10.3111	-1.474	24.4766	-31.6656	727.7352	-40.5375	262.8669	55.057	714.5816	-0.0592	0.0182	-0.0073	-0.0462	0.0165	0.9585
48.69	0.61624	15.7635	1.5153	-5.6657	-1.1571	13.6365	-29.0365	737.8	-40.0788	266.2769	53.722	721.2544	-0.0592	0.0182	-0.0073	-0.0462	0.0165	0.9585
48.71	0.021513	6.6289	0.93184	-2.3692	-0.87679	5.8971	-25.9537	742.62	-39.3378	267.7804	51.9002	722.6086	-0.0592	0.0182	-0.0073	-0.0462	0.0165	0.9585
48.73	-0.3366	0.73357	0.50902	-0.24148	-0.63573	0.86802	-22.5315	742.3574	-38.5494	267.3638	49.8366	718.9186	-0.0592	0.0182	-0.0073	-0.0462	0.0165	0.9585
48.75	-0.51391	-2.5927	0.23174	0.96001	-0.44882	-1.9977	-18.9546	737.789	-37.9608	265.2407	47.8189	711.0614	-0.0592	0.0182	-0.0073	-0.0462	0.0165	0.9585
48.77	-0.56606	-4.0678	0.072095	1.4945	-0.31922	-3.2939	-15.4842	730.4443	-37.7577	261.9244	46.1185	700.6328	-0.0592	0.0182	-0.0073	-0.0462	0.0165	0.9585
48.79	-0.54035	-4.3358	0.00013955	1.5941	-0.24213	-3.5537	-12.4425	722.6482	-38.015	258.2584	44.939	689.9628	-0.0592	0.0182	-0.0073	-0.0462	0.0165	0.9585
48.81	-0.47411	-3.9129	-0.012049	1.4444	-0.20517	-3.2088	-10.1499	717.3002	-38.701	255.3371	44.3914	681.8676	-0.0592	0.0182	-0.0073	-0.0462	0.0165	0.9585
48.83	-0.39612	-3.1742	0.0098927	1.1805	-0.19284	-2.581	-8.8131	717.3758	-39.7176	254.315	44.4864	679.1487	-0.0592	0.0182	-0.0073	-0.0462	0.0165	0.9585
48.85	-0.32339	-2.3639	0.044963	0.8899	-0.1917	-1.8795	-8.4722	725.2822	-40.9175	256.1621	45.1339	683.9866	-0.0592	0.0182	-0.0073	-0.0462	0.0165	0.9585
48.87	-0.26451	-1.6238	0.079477	0.62345	-0.19447	-1.2256	-8.9853	742.2243	-42.1243	261.4162	46.1424	697.3693	-0.0592	0.0182	-0.0073	-0.0462	0.0165	0.9585
48.89	-0.22187	-1.0159	0.10578	0.40564	-0.19802	-0.68074	-10.0673	767.766	-43.1681	270.0021	47.2599	718.7255	-0.0592	0.0182	-0.0073	-0.0462	0.0165	0.9585
48.91	-0.19195	-0.55419	0.12082	0.24384	-0.20009	-0.26605	-11.3773	799.7103	-43.9235	281.1673	48.2361	745.876	-0.0592	0.0182	-0.0073	-0.0462	0.0165	0.9585
48.93	-0.17448	-0.23096	0.1297	0.13502	-0.20498	0.015913	-12.615	834.2956	-44.3502	293.5451	48.8961	775.2702	-0.0592	0.0182	-0.0073	-0.0462	0.0165	0.9585
48.95	-0.1716	-0.033294	0.1393	0.073236	-0.21864	0.16335	-13.5773	866.8157	-44.477	305.3805	49.1487	802.5693	-0.0592	0.0182	-0.0073	-0.0462	0.0165	0.9585
48.97	-0.18475	0.042458	0.15458	0.055599	-0.24562	0.17642	-14.1523	892.5993	-44.3512	314.8992	48.9475	823.5366	-0.0592	0.0182	-0.0073	-0.0462	0.0165	0.9585
48.99	-0.21536	-0.019788	0.17814	0.085405	-0.28822	0.052261	-14.2892	907.95	-44.0172	320.6686	48.2705	834.871	-0.0592	0.0182	-0.0073	-0.0462	0.0165	0.9585
49.01	-0.26251	-0.24727	0.2114	0.17189	-0.34545	-0.22996	-13.9462	910.78	-43.5286	321.8545	47.1291	834.7422	-0.0592	0.0182	-0.0073	-0.0462	0.0165	0.9585
49.03	-0.32107	-0.66646	0.25088	0.32783	-0.40965	-0.69745	-13.0613	900.971	-42.9104	318.369	45.5287	823.0895	-0.0592	0.0182	-0.0073	-0.0462	0.0165	0.9585
49.05	-0.3824	-1.3046	0.28679	0.56311	-0.466	-1.3794	-11.571	880.2396	-42.1662	310.8205	43.4804	801.4885	-0.0592	0.0182	-0.0073	-0.0462	0.0165	0.9585
